2.2Hzhigh3min_grf.mot
version=1
nRows=15
nColumns 19
inDegrees=yes
endheader
time	1_ground_force_vx	1_ground_force_vy	1_ground_force_vz	1_ground_force_px	1_ground_force_py	1_ground_force_pz	1_ground_torque_x	1_ground_torque_y	1_ground_torque_z	2_ground_force_vx	2_ground_force_vy	2_ground_force_vz	2_ground_force_px	2_ground_force_py	2_ground_force_pz	2_ground_torque_x	2_ground_torque_y	2_ground_torque_z
            0.005000	           -0.135532	           -5.950367	            0.341681	           -0.156386	            0.006100	           -0.373470	           -0.500785	           -0.303568	           -0.381673	           -0.180068	           -2.026476	            0.039780	           -0.197679	            0.005476	           -0.615227	           -0.412995	           -0.086365	           -0.056678
            0.005500	           -0.273729	           -5.408613	            0.115062	           -0.156386	            0.006100	           -0.373470	           -0.509737	           -0.479911	           -0.237905	            0.144661	           -1.105387	            0.277566	           -0.197679	            0.005476	           -0.615227	           -0.431601	           -0.142947	           -0.113423
            0.006000	           -0.273244	           -4.328199	            0.394835	           -0.156386	            0.006100	           -0.373470	           -0.540876	           -0.295200	           -0.199478	            0.570256	           -2.208419	            0.179589	           -0.197679	            0.005476	           -0.615227	           -0.374778	           -0.256647	            0.018099
            0.006500	            0.139427	           -5.409516	            0.343317	           -0.156386	            0.006100	           -0.373470	           -0.519598	            0.222784	           -0.217276	            0.100990	           -2.025126	           -0.054196	           -0.197679	            0.005476	           -0.615227	           -0.300146	           -0.132952	           -0.132296
            0.007000	           -0.043993	           -5.769887	            0.296370	           -0.156386	            0.006100	           -0.373470	           -0.517490	            0.546218	           -0.223700	            0.058751	           -3.313999	           -0.152631	           -0.197679	            0.005476	           -0.615227	           -0.338179	            0.008299	           -0.018673
            0.007500	           -0.090276	           -5.228509	            0.161235	           -0.156386	            0.006100	           -0.373470	           -0.587053	            0.481474	           -0.225779	           -0.085745	           -2.209951	           -0.054773	           -0.197679	            0.005476	           -0.615227	           -0.357159	            0.055696	           -0.075047
            0.008000	            0.092982	           -5.228277	            0.114924	           -0.156386	            0.006100	           -0.373470	           -0.434821	            0.037903	           -0.220240	           -0.322112	           -1.657347	           -0.334271	           -0.197679	            0.005476	           -0.615227	           -0.507494	            0.073925	           -0.037215
            0.008500	           -0.044646	           -4.687506	            0.117584	           -0.156386	            0.006100	           -0.373470	           -0.529195	           -0.405459	           -0.321780	           -0.135192	           -1.474029	            0.088660	           -0.197679	            0.005476	           -0.615227	           -0.337802	           -0.104864	           -0.094478
            0.009000	           -0.318515	           -5.590657	            0.527106	           -0.156386	            0.006100	           -0.373470	           -0.621262	           -0.525833	           -0.314966	            0.099764	           -1.657666	            0.181759	           -0.197679	            0.005476	           -0.615227	           -0.393817	           -0.199595	           -0.094792
            0.009500	           -0.044239	           -5.048627	            0.253606	           -0.156386	            0.006100	           -0.373470	           -0.497187	           -0.174604	           -0.264463	            0.337939	           -2.761208	            0.036933	           -0.197679	            0.005476	           -0.615227	           -0.356298	           -0.180688	           -0.057040
            0.010000	           -0.089674	           -5.409757	            0.389742	           -0.156386	            0.006100	           -0.373470	           -0.502821	            0.305874	           -0.226735	            0.008681	           -2.394263	            0.085314	           -0.197679	            0.005476	           -0.615227	           -0.450694	           -0.048757	           -0.037677
            0.010500	           -0.227512	           -5.589460	            0.251743	           -0.156386	            0.006100	           -0.373470	           -0.571936	            0.527554	           -0.212672	            0.008558	           -2.393259	           -0.196254	           -0.197679	            0.005476	           -0.615227	           -0.394688	            0.046041	           -0.056214
            0.011000	           -0.272899	           -5.590255	            0.435280	           -0.156386	            0.006100	           -0.373470	           -0.467002	            0.342530	           -0.178085	            0.005899	           -1.656665	           -0.193626	           -0.197679	            0.005476	           -0.615227	           -0.432514	            0.112208	           -0.093663
            0.011500	            0.047807	           -5.770066	            0.341999	           -0.156386	            0.006100	           -0.373470	           -0.632179	           -0.118883	           -0.316348	           -0.369606	           -1.473536	           -0.286666	           -0.197679	            0.005476	           -0.615227	           -0.319579	            0.046581	           -0.131647
            0.012000	            0.093437	           -5.229063	            0.298348	           -0.156386	            0.006100	           -0.373470	           -0.536319	           -0.452172	           -0.184493	           -0.085039	           -2.394434	            0.038426	           -0.197679	            0.005476	           -0.615227	           -0.356564	           -0.095950	            0.037515
